<svg width="24" height="24" viewBox="0 0 24 24" fill="none" xmlns="http://www.w3.org/2000/svg">
<path d="M7.37 8.00008C8.362 6.47508 9.344 4.91008 9.956 3.37708C10.216 2.72708 11.016 2.42208 11.573 2.84608C14.943 5.41408 20 10.3781 20 15.0001C20 16.1741 19.8 17.1661 19.47 18.0001M5.466 11.0001C4.613 12.4541 4 13.8131 4 15.0001C4 18.1071 6.246 20.3091 8.081 21.3721C8.502 21.6151 8.911 21.1071 8.691 20.6741C8.205 19.7211 7.733 18.4891 7.733 17.5001C7.733 16.1291 8.778 15.0271 9.525 14.3201C9.716 14.1391 10.016 14.1411 10.182 14.3461C10.49 14.7261 10.798 15.2081 11.106 15.5981C11.1468 15.6508 11.1999 15.6928 11.2605 15.7205C11.3212 15.7482 11.3876 15.7608 11.4542 15.7572C11.5208 15.7535 11.5855 15.7338 11.6428 15.6996C11.7 15.6655 11.7482 15.6179 11.783 15.5611C12.769 14.0411 12.998 12.1031 13.051 10.6541C13.067 10.2161 13.579 10.0011 13.872 10.3261C15.156 11.7461 16.8 14.0501 16.8 16.0001C16.8 17.8161 15.782 19.7461 14.902 21.0121C14.644 21.3821 14.927 21.8851 15.359 21.7511C15.9235 21.5733 16.4631 21.3246 16.965 21.0111" stroke="#DC143C" stroke-width="1.5" stroke-linecap="round"/>
</svg>
