<svg width="34" height="39" viewBox="0 0 34 39" fill="none" xmlns="http://www.w3.org/2000/svg">
<path d="M0.290039 35.4831L12.2596 27.3192L30.797 0.740723L12.2596 7.92245L18.275 9.39562L9.37461 22.2859L14.9604 20.0761L6.24412 26.7054L0.290039 35.4831Z" fill="#1496DC"/>
<path d="M2.74533 26.3371L3.42053 23.9432L5.75306 23.3908L4.83233 25.7847L2.74533 26.3371Z" fill="#1496DC"/>
<path d="M0.290039 35.4831L12.2596 27.3192L30.797 0.740723L12.2596 7.92245L18.275 9.39562L9.37461 22.2859L14.9604 20.0761L6.24412 26.7054L0.290039 35.4831Z" stroke="#1496DC" stroke-width="0.7"/>
<path d="M2.74533 26.3371L3.42053 23.9432L5.75306 23.3908L4.83233 25.7847L2.74533 26.3371Z" stroke="#1496DC" stroke-width="0.7"/>
<path d="M7.90113 15.3499L4.40234 20.506L8.6991 19.0942L11.891 14.1222L7.90113 15.3499Z" fill="#DC143C"/>
<path d="M8.26943 12.8946L9.49707 11.1759H11.891L10.6633 12.8946H8.26943Z" fill="#DC143C"/>
<path d="M30.0601 4.42383L6.42796 38.4296L19.8093 28.056L28.4028 16.7617L32.6382 20.506L30.0601 4.42383Z" fill="#DC143C"/>
<path d="M17.2312 31.8617L15.0215 34.1942L15.3898 37.5702L17.8451 34.7467L17.2312 31.8617Z" fill="#DC143C"/>
<path d="M26.5 22.6544L23.1853 27.1353L23.7378 31.0023L27.1138 26.3987L26.5 22.6544Z" fill="#DC143C"/>
<path d="M7.90113 15.3499L4.40234 20.506L8.6991 19.0942L11.891 14.1222L7.90113 15.3499Z" stroke="#DC143C" stroke-width="0.7"/>
<path d="M8.26943 12.8946L9.49707 11.1759H11.891L10.6633 12.8946H8.26943Z" stroke="#DC143C" stroke-width="0.7"/>
<path d="M30.0601 4.42383L6.42796 38.4296L19.8093 28.056L28.4028 16.7617L32.6382 20.506L30.0601 4.42383Z" stroke="#DC143C" stroke-width="0.7"/>
<path d="M17.2312 31.8617L15.0215 34.1942L15.3898 37.5702L17.8451 34.7467L17.2312 31.8617Z" stroke="#DC143C" stroke-width="0.7"/>
<path d="M26.5 22.6544L23.1853 27.1353L23.7378 31.0023L27.1138 26.3987L26.5 22.6544Z" stroke="#DC143C" stroke-width="0.7"/>
</svg>
